<?xml version="1.0" standalone="no"?>
<!DOCTYPE svg PUBLIC "-//W3C//DTD SVG 20010904//EN"
 "http://www.w3.org/TR/2001/REC-SVG-20010904/DTD/svg10.dtd">
<svg version="1.0" xmlns="http://www.w3.org/2000/svg"
 width="866.000000pt" height="866.000000pt" viewBox="0 0 866.000000 866.000000"
 preserveAspectRatio="xMidYMid meet">
<metadata>
Created by potrace 1.11, written by Peter Selinger 2001-2013
</metadata>
<g transform="translate(0.000000,866.000000) scale(0.100000,-0.100000)"
fill="#000000" stroke="none">
<path d="M3910 7790 c0 -5 4 -10 10 -10 5 0 19 -10 30 -22 41 -44 9 -140 -73
-220 -69 -67 -148 -97 -342 -133 -77 -14 -147 -27 -155 -30 -8 -2 -49 -7 -90
-10 -41 -3 -86 -7 -100 -10 -14 -2 -50 -7 -80 -10 -30 -4 -81 -16 -114 -26
-83 -28 -221 -123 -267 -184 -21 -27 -45 -57 -53 -67 -8 -9 -12 -19 -9 -21 2
-3 -2 -15 -9 -27 -11 -18 -11 -23 6 -36 11 -8 26 -14 34 -14 7 0 10 -5 6 -12
-4 -7 -3 -8 5 -4 6 4 32 -8 60 -28 45 -33 49 -35 63 -18 8 9 20 32 26 49 17
50 77 123 132 160 27 18 52 33 56 33 3 0 18 8 32 18 43 29 124 50 276 73 77
11 149 22 158 25 9 3 25 7 36 9 11 2 62 18 114 35 145 50 231 115 309 234 22
33 39 52 39 43 0 -9 12 -42 26 -74 14 -32 26 -70 27 -85 1 -14 5 -24 10 -21 4
2 7 2 7 0 0 -8 82 -243 95 -272 8 -16 30 -79 51 -140 20 -60 40 -114 44 -120
4 -5 27 -66 51 -135 24 -69 49 -136 56 -149 6 -14 10 -28 7 -33 -3 -4 -1 -8 4
-8 5 0 12 -8 15 -17 2 -10 8 -25 12 -35 5 -13 -3 -18 -46 -27 -97 -21 -146
-60 -154 -124 -5 -42 -26 -109 -46 -143 -11 -20 -17 -39 -14 -45 4 -5 34 -9
69 -9 34 0 66 -3 70 -7 4 -4 13 -8 19 -9 7 0 20 -2 30 -2 11 -1 15 -7 11 -14
-4 -6 -3 -8 4 -4 31 19 166 -101 193 -172 8 -20 12 -22 24 -12 8 7 22 10 30 6
9 -3 15 0 15 8 0 8 15 21 33 29 24 12 110 92 98 92 -1 0 3 14 9 30 17 45 15
163 -5 211 -16 40 -70 99 -130 141 -21 14 -55 24 -103 29 -58 5 -75 11 -83 26
-15 29 -71 180 -72 196 0 6 -3 12 -7 12 -5 0 -33 70 -36 90 0 3 -8 22 -17 44
-9 21 -17 41 -17 45 0 4 -9 24 -20 46 -11 22 -20 46 -20 55 0 19 -61 191 -89
254 -12 25 -24 60 -28 78 -3 18 -12 44 -20 58 -7 14 -13 31 -13 39 0 8 -20 58
-45 111 -31 68 -44 111 -44 141 0 70 -4 82 -32 106 -27 23 -69 31 -69 13z"/>
<path d="M2386 7171 c-4 -5 14 -24 39 -42 25 -18 45 -36 45 -41 0 -4 5 -8 11
-8 10 0 55 -37 87 -72 20 -22 52 -24 52 -4 0 8 4 16 8 18 16 6 22 55 9 66 -6
5 -57 25 -112 45 -55 19 -107 38 -116 41 -10 4 -20 3 -23 -3z"/>
<path d="M2572 6921 c1 -7 -26 -72 -45 -111 -8 -14 -12 -35 -12 -47 2 -24 50
-93 65 -93 5 0 18 -10 30 -22 11 -12 20 -19 20 -15 0 17 172 -85 213 -126 61
-61 199 -150 265 -171 31 -11 50 -22 46 -28 -4 -7 -2 -8 4 -4 6 4 34 -5 62
-20 50 -26 109 -79 215 -194 28 -29 79 -73 115 -98 36 -24 73 -51 83 -60 18
-16 22 -10 18 30 -2 20 -63 142 -87 176 -25 34 -8 26 32 -15 31 -32 154 -263
154 -290 0 -21 52 -102 110 -171 33 -39 56 -73 52 -76 -4 -2 -26 4 -49 15 -54
25 -71 17 -79 -37 -3 -25 -9 -43 -11 -40 -3 3 -24 -5 -47 -18 -22 -12 -113
-48 -201 -80 -88 -31 -182 -67 -209 -78 -28 -11 -73 -27 -100 -35 -28 -8 -57
-20 -64 -25 -7 -6 -15 -8 -18 -5 -4 3 -12 0 -20 -7 -7 -8 -38 -22 -69 -31 -31
-10 -58 -22 -61 -26 -3 -5 -11 -9 -19 -9 -10 0 -9 8 4 38 30 61 54 203 47 263
-4 30 -7 57 -7 61 0 27 -93 242 -115 264 -6 7 -24 38 -40 70 -16 32 -34 63
-41 69 -18 14 -118 220 -138 284 -20 62 -23 115 -12 216 l8 70 -53 32 c-79 48
-97 47 -127 -7 -20 -36 -26 -62 -29 -135 -4 -79 -1 -101 23 -170 30 -85 96
-216 126 -251 11 -11 19 -24 19 -28 0 -4 9 -19 20 -33 11 -14 17 -30 13 -36
-3 -5 -1 -7 4 -4 6 4 29 -20 52 -53 23 -33 39 -60 34 -60 -4 0 0 -5 10 -11 19
-11 59 -83 52 -93 -3 -3 -2 -4 1 -1 8 5 54 -61 54 -78 0 -7 9 -30 21 -51 11
-21 18 -45 15 -52 -3 -8 -1 -14 4 -14 22 0 47 -219 28 -245 -4 -5 -23 -30 -41
-55 -37 -50 -68 -61 -98 -34 -28 25 -36 9 -12 -24 28 -38 58 -39 102 -4 29 23
270 134 316 146 23 5 62 19 90 31 30 13 126 49 135 51 6 1 29 10 80 29 19 8
67 25 105 39 39 13 92 34 118 45 27 12 50 21 51 21 2 0 2 -17 1 -37 0 -21 5
-65 12 -98 7 -33 15 -69 17 -80 2 -11 9 -32 16 -47 10 -22 10 -30 -4 -49 -20
-29 -21 -79 -1 -126 14 -34 14 -40 -4 -78 -20 -42 -19 -69 1 -111 7 -16 5 -32
-10 -65 -33 -72 -42 -109 -42 -164 0 -67 37 -177 70 -205 4 -3 13 -15 21 -27
8 -12 48 -58 89 -103 41 -46 84 -95 95 -111 34 -49 46 -35 20 27 -8 19 -15 38
-16 42 -1 4 -14 23 -30 44 -16 20 -36 54 -45 75 -9 21 -22 45 -29 53 -15 18
-39 114 -33 132 3 8 9 4 17 -10 33 -61 154 -151 246 -182 39 -13 75 -25 82
-26 46 -8 169 -52 222 -80 35 -19 66 -32 69 -29 9 8 -30 45 -85 82 -29 19 -53
39 -53 44 0 5 -7 9 -15 9 -9 0 -28 11 -42 24 -14 13 -43 32 -64 42 -22 9 -39
21 -39 26 0 4 -6 8 -14 8 -21 0 -101 75 -135 126 -36 54 -55 139 -46 200 7 52
19 55 40 13 9 -16 24 -38 33 -48 9 -10 24 -27 32 -38 29 -37 153 -116 295
-188 144 -74 274 -155 319 -200 14 -14 27 -25 29 -25 2 0 33 -28 70 -62 74
-70 119 -126 111 -139 -3 -5 -1 -9 4 -9 5 0 14 -11 20 -25 15 -32 36 -34 27
-2 -19 63 -122 236 -161 267 -8 7 -14 16 -14 20 0 16 -101 117 -200 200 -186
155 -204 173 -262 251 -84 114 -91 133 -107 318 -6 72 11 167 29 156 4 -3 7 1
7 8 -2 20 26 97 35 97 4 0 8 4 8 9 0 8 79 134 98 157 5 5 15 35 22 65 8 29 18
60 23 66 5 7 9 41 8 75 0 51 -8 77 -41 145 -32 67 -50 90 -92 122 -67 50 -108
66 -201 81 -94 16 -132 8 -122 -23 3 -12 8 -31 10 -42 2 -11 6 -35 9 -52 4
-18 4 -33 1 -33 -2 0 -20 34 -39 75 -19 41 -45 85 -58 98 -14 14 -33 35 -44
48 -28 35 -123 82 -259 127 -177 59 -229 80 -241 97 -6 8 -13 13 -15 11 -2 -3
-29 18 -59 45 -39 36 -100 73 -215 128 -168 82 -248 136 -328 219 -26 28 -61
56 -77 63 -16 7 -26 17 -23 23 3 5 1 6 -5 2 -6 -4 -24 -1 -39 7 -28 14 -113
20 -111 8z"/>
<path d="M2886 6891 c-7 -11 6 -22 59 -50 22 -12 47 -25 55 -31 8 -5 54 -31
102 -58 49 -27 85 -53 80 -58 -4 -5 -3 -6 1 -2 5 4 30 -5 55 -20 26 -14 64
-34 84 -45 21 -11 34 -25 31 -31 -3 -6 -3 -8 2 -4 10 9 205 -96 213 -114 2 -5
7 -6 10 -4 4 2 43 -18 87 -44 44 -27 112 -65 152 -86 42 -22 70 -42 66 -48 -3
-6 -3 -8 2 -4 4 4 51 -15 103 -43 103 -54 149 -67 149 -42 0 20 -48 53 -149
103 -48 24 -85 47 -82 51 3 5 -1 6 -8 4 -7 -3 -46 15 -87 40 -40 25 -77 45
-82 45 -5 0 -9 5 -9 10 0 6 -5 10 -10 10 -19 0 -200 107 -193 114 4 4 -1 4
-11 0 -10 -4 -21 -3 -25 2 -3 5 -37 25 -75 44 -63 32 -289 156 -326 180 -16
10 -181 90 -186 90 -1 0 -5 -4 -8 -9z"/>
<path d="M4733 5949 c-37 -11 -36 -34 3 -43 14 -4 22 -11 19 -16 -3 -6 1 -7 9
-4 9 4 18 -1 22 -10 3 -9 10 -14 14 -11 5 3 39 -24 75 -60 37 -36 74 -65 83
-65 10 0 26 -6 37 -13 17 -11 39 -19 115 -42 43 -13 131 -58 125 -63 -2 -3 6
-13 18 -23 31 -26 6 -24 -40 4 -41 24 -62 33 -163 69 -36 13 -66 26 -68 30 -2
5 -12 3 -22 -2 -15 -8 -29 1 -77 48 -79 77 -177 125 -258 126 -55 1 -60 -1
-56 -19 2 -11 4 -56 5 -100 1 -73 -2 -85 -33 -142 -19 -35 -38 -63 -44 -63 -6
0 -8 -3 -4 -6 7 -8 -39 -98 -59 -115 -8 -6 -14 -19 -14 -28 0 -9 -7 -26 -15
-38 -54 -76 -84 -243 -60 -331 15 -57 64 -181 79 -200 18 -23 79 -82 86 -82 3
0 5 46 4 102 -3 140 16 199 101 306 24 30 78 77 87 74 5 -1 7 2 4 7 -3 5 10
18 29 30 43 25 44 36 6 56 -32 16 -107 102 -98 111 4 5 81 -39 97 -56 3 -3 12
-6 20 -7 8 -2 56 -13 105 -26 61 -16 100 -21 122 -17 25 6 36 3 49 -12 28 -30
103 -63 174 -77 77 -15 245 -11 280 6 14 7 34 13 46 13 11 0 28 6 39 13 17 13
16 18 -20 108 -55 134 -128 225 -220 271 -16 8 -86 34 -155 58 -179 61 -187
65 -215 121 -14 26 -29 50 -35 54 -6 4 -7 11 -4 17 4 7 2 8 -4 4 -7 -4 -12 -3
-12 3 0 31 -118 58 -177 40z"/>
<path d="M8170 5164 c-52 -20 -99 -37 -105 -38 -5 -2 -17 -6 -25 -9 -40 -17
-207 -76 -220 -79 -8 -2 -17 -5 -20 -8 -3 -3 -21 -11 -40 -17 -19 -6 -80 -27
-135 -48 -55 -20 -104 -38 -110 -39 -5 -2 -17 -6 -25 -9 -8 -3 -42 -13 -75
-23 -74 -22 -67 -19 -87 -28 -9 -4 -22 -9 -30 -10 -7 -1 -67 -19 -133 -40 -66
-21 -124 -39 -130 -41 -5 -1 -17 -5 -25 -8 -23 -9 -85 -27 -106 -32 -10 -2
-39 -11 -63 -19 -24 -9 -53 -18 -65 -21 -26 -5 -45 -10 -116 -29 -30 -8 -66
-17 -80 -20 -14 -2 -77 -17 -140 -31 -63 -15 -124 -29 -135 -30 -11 -2 -31 -6
-45 -9 -38 -9 -71 -15 -110 -22 -19 -4 -44 -8 -55 -10 -11 -2 -36 -7 -55 -10
-49 -8 -101 -26 -130 -44 -53 -32 -69 -40 -190 -102 -69 -34 -127 -65 -130
-69 -3 -3 -20 -14 -37 -24 -18 -11 -33 -23 -33 -27 0 -7 72 -4 170 7 31 4 89
7 315 20 49 2 113 17 210 49 77 26 149 48 160 51 11 2 21 4 23 6 1 1 7 3 12 4
6 1 11 3 13 5 1 1 11 4 22 6 25 6 36 9 55 17 48 21 129 44 134 40 3 -4 6 0 6
7 0 7 2 11 5 8 3 -3 43 8 88 24 45 16 90 31 99 33 10 2 33 11 52 20 19 9 40
18 48 19 15 3 43 13 73 26 11 5 49 21 85 36 36 14 76 31 90 37 14 6 27 11 30
12 22 7 161 67 245 106 33 15 83 37 110 49 28 12 66 30 87 40 20 10 39 16 42
13 3 -4 6 -1 6 5 0 7 4 12 10 12 5 0 43 16 84 35 41 19 77 35 80 35 3 0 47 20
98 44 105 49 177 82 261 120 31 14 57 30 57 36 0 15 -17 12 -120 -26z"/>
<path d="M380 5181 c0 -6 37 -28 83 -49 175 -83 218 -102 227 -102 6 0 10 -5
10 -12 0 -6 3 -9 6 -6 3 3 42 -11 87 -32 45 -20 105 -47 132 -60 111 -50 162
-73 211 -96 28 -13 54 -24 57 -24 3 0 39 -15 79 -34 74 -34 129 -58 138 -61 5
-2 18 -7 115 -48 33 -14 110 -44 170 -67 61 -22 119 -45 130 -49 24 -11 144
-52 159 -56 6 -1 18 -5 26 -8 29 -12 203 -67 211 -67 4 0 20 -5 36 -12 15 -6
30 -12 33 -12 13 -2 104 -32 190 -61 96 -33 117 -36 385 -50 44 -2 107 -7 140
-10 112 -12 145 -12 145 -3 0 5 -10 13 -22 18 -13 6 -36 18 -53 28 -16 10 -86
48 -155 84 -69 35 -141 75 -160 87 -40 24 -111 46 -185 56 -11 1 -20 3 -20 5
0 1 -11 3 -25 4 -14 2 -54 9 -90 15 -86 17 -95 19 -95 21 0 2 -17 6 -60 13
-16 3 -59 12 -95 21 -36 8 -76 17 -90 20 -14 3 -52 12 -85 21 -33 8 -67 17
-75 19 -8 2 -28 7 -45 11 -16 4 -34 10 -40 14 -5 3 -18 7 -28 8 -9 2 -44 12
-77 23 -33 11 -64 20 -69 20 -5 0 -22 5 -38 12 -15 6 -33 12 -38 13 -16 4
-248 76 -265 82 -8 4 -18 7 -22 8 -5 2 -9 3 -10 5 -2 1 -10 3 -18 5 -49 11
-277 87 -315 104 -11 5 -54 21 -95 36 -41 15 -118 42 -170 62 -52 19 -108 39
-125 45 -16 5 -39 14 -50 19 -75 34 -155 54 -155 40z"/>
<path d="M5353 4187 c-55 -81 -163 -229 -188 -259 -11 -13 -32 -38 -46 -55
-15 -18 -30 -29 -34 -25 -5 4 -5 2 -2 -4 3 -5 -25 -43 -64 -83 -38 -40 -69
-71 -69 -68 0 3 -18 -12 -40 -34 -22 -22 -40 -38 -40 -36 0 3 -17 -10 -37 -29
-20 -19 -38 -32 -40 -30 -3 2 -15 -6 -28 -18 -19 -18 -205 -118 -225 -122 -16
-3 -40 -17 -40 -25 0 -25 170 27 312 97 100 49 230 124 240 139 4 5 8 7 8 3 0
-5 8 0 19 10 10 9 64 48 119 85 89 60 116 84 183 156 8 9 15 28 16 42 0 20 10
183 16 288 3 43 -17 32 -60 -32z"/>
<path d="M6528 4245 c-2 -2 -21 -5 -43 -8 -22 -3 -56 -8 -75 -11 -19 -3 -98
-15 -175 -26 -77 -11 -151 -23 -165 -26 -14 -3 -38 -7 -55 -10 -44 -6 -65 -14
-65 -25 0 -5 6 -9 13 -10 6 0 21 -2 32 -4 22 -4 75 -12 145 -20 25 -3 56 -8
70 -10 14 -2 54 -7 90 -10 36 -4 67 -8 70 -10 8 -5 121 -18 150 -18 14 0 66 8
115 17 50 10 115 21 145 27 53 8 74 13 130 24 14 2 41 7 60 10 19 3 49 8 65
12 17 4 35 6 41 5 7 -1 14 4 17 12 7 18 -7 23 -98 31 -38 3 -77 8 -85 10 -8 2
-46 6 -83 10 -37 3 -76 8 -85 9 -16 3 -127 16 -184 21 -15 1 -28 1 -30 0z"/>
<path d="M2138 4235 c-2 -1 -30 -5 -63 -9 -33 -3 -69 -8 -80 -10 -11 -2 -51
-7 -89 -10 -38 -4 -72 -9 -75 -11 -4 -2 -35 -6 -71 -10 -36 -3 -81 -9 -100
-12 -19 -3 -45 -6 -58 -7 -12 0 -21 -5 -19 -10 4 -11 42 -21 121 -31 27 -4 58
-9 70 -11 45 -10 182 -35 213 -39 11 -2 29 -6 40 -9 10 -3 41 -8 68 -12 28 -3
52 -8 56 -9 3 -2 23 0 45 5 21 5 62 12 89 15 28 4 61 8 75 10 14 2 45 6 70 8
25 3 59 8 75 11 17 3 48 7 70 10 22 3 64 8 93 11 75 10 67 28 -18 38 -14 1
-29 5 -35 9 -5 3 -35 9 -66 12 -31 4 -67 9 -80 12 -13 2 -42 7 -64 9 -22 3
-53 7 -70 10 -30 4 -144 23 -177 29 -9 2 -18 3 -20 1z"/>
<path d="M3255 4230 c-4 -6 -4 -48 0 -93 7 -77 11 -143 14 -212 1 -20 14 -44
38 -70 21 -22 36 -43 35 -48 -1 -4 2 -6 7 -5 5 2 23 -9 40 -25 17 -15 31 -24
31 -20 0 5 4 3 8 -3 6 -9 52 -42 111 -79 9 -5 18 -12 21 -15 15 -15 100 -70
108 -70 6 0 12 -3 14 -7 3 -8 29 -23 123 -72 28 -14 52 -28 55 -31 3 -3 12 -6
20 -8 8 -2 40 -15 70 -29 30 -14 66 -27 80 -30 13 -2 29 -8 35 -13 16 -14 64
-20 70 -9 4 5 -1 16 -9 25 -9 8 -16 13 -16 10 0 -10 -174 85 -240 132 -36 25
-80 60 -97 79 -18 18 -33 31 -33 28 0 -16 -208 210 -262 286 -18 24 -35 46
-38 49 -8 8 -64 83 -75 101 -31 52 -91 138 -97 138 -4 1 -10 -4 -13 -9z"/>
<path d="M4330 3665 c-7 -18 -6 -31 3 -45 12 -20 26 -26 28 -12 0 4 2 17 5 30
2 13 -3 30 -11 38 -13 14 -16 13 -25 -11z"/>
<path d="M4263 3636 l-31 -34 26 -39 c25 -37 26 -43 27 -198 1 -147 -7 -215
-23 -215 -4 0 -19 -10 -33 -23 -15 -12 -48 -40 -75 -62 -26 -22 -53 -45 -60
-52 -6 -7 -15 -9 -20 -5 -4 4 0 -5 9 -20 10 -16 15 -28 12 -28 -3 0 4 -9 15
-20 27 -27 30 -26 30 15 0 24 5 35 15 35 8 0 15 7 15 15 0 8 3 15 8 15 4 0 29
20 57 44 27 25 52 43 55 42 3 -2 12 5 21 14 13 14 15 48 15 222 -1 148 -4 209
-13 220 -7 8 -10 18 -6 21 3 4 -1 7 -10 7 -14 0 -14 3 -1 28 30 58 14 68 -33
18z"/>
<path d="M4390 3661 c0 -5 5 -22 10 -36 8 -22 6 -32 -10 -52 -19 -24 -20 -41
-20 -227 l0 -202 51 -44 c29 -25 61 -53 73 -63 12 -10 31 -27 44 -38 19 -16
22 -26 17 -50 -9 -39 6 -37 38 7 21 30 23 40 14 55 -6 10 -15 15 -19 13 -4 -3
-8 -1 -8 3 0 5 -21 26 -47 46 -27 20 -64 51 -83 67 l-35 31 -1 180 c-1 127 3
184 11 193 7 6 17 21 24 34 10 19 8 27 -16 57 -28 35 -43 44 -43 26z"/>
<path d="M4327 3085 c-9 -8 -20 -15 -26 -15 -5 0 -13 -5 -17 -12 -5 -7 -2 -8
7 -3 8 4 -14 -20 -48 -55 -56 -55 -67 -70 -65 -90 4 -44 13 -162 17 -220 10
-123 14 -172 21 -235 8 -66 11 -113 13 -162 1 -39 15 -43 33 -9 7 14 31 38 53
54 l40 28 36 -25 c20 -14 44 -39 53 -55 20 -35 28 -29 31 21 2 21 6 90 10 153
4 63 8 133 10 155 7 115 17 254 21 285 4 40 -3 70 -17 70 -16 0 -39 27 -31 35
4 5 2 5 -5 2 -6 -4 -21 5 -32 19 -12 15 -21 23 -21 18 0 -5 -6 -2 -13 6 -7 8
-22 23 -33 33 -20 16 -23 16 -37 2z m23 -82 c0 -5 22 -21 48 -36 l48 -29 -2
-66 c-7 -267 -15 -517 -18 -519 -2 -2 -15 6 -29 18 -19 14 -27 30 -27 51 0 34
-23 35 -28 0 -3 -20 -51 -76 -59 -68 -4 4 -8 42 -18 206 -3 47 -7 110 -10 140
-3 30 -7 90 -10 132 l-4 77 47 50 c46 48 62 59 62 44z"/>
<path d="M5542 2895 c4 -5 0 -13 -9 -20 -9 -7 -18 -21 -20 -31 -9 -50 4 -222
32 -414 3 -19 7 -55 10 -80 2 -25 7 -63 10 -85 3 -22 8 -106 10 -187 3 -109 1
-148 -8 -149 -7 0 -21 -3 -32 -5 -11 -3 -25 -6 -32 -6 -21 -2 -3 -43 33 -74
39 -34 38 -29 20 -141 -6 -41 -24 -111 -36 -143 -6 -14 -11 -35 -13 -47 -2
-12 -6 -25 -9 -28 -3 -3 -1 -17 6 -30 12 -25 57 -40 98 -30 13 2 36 7 51 9 26
4 102 45 85 46 -4 0 2 19 12 43 10 23 21 53 24 67 3 14 12 50 20 80 8 30 17
72 21 94 l6 38 97 -6 c53 -3 117 -8 142 -10 88 -10 126 -14 215 -20 106 -8 85
10 236 -208 273 -395 466 -600 558 -593 67 6 60 37 -40 183 -35 52 -68 101
-74 110 -5 8 -17 23 -25 32 -29 31 -115 143 -125 161 -5 11 -13 19 -16 19 -4
0 -59 65 -122 144 l-115 143 61 1 c161 2 209 37 150 110 -61 76 -152 103 -294
88 -25 -2 -52 0 -60 5 -8 5 -11 9 -7 9 3 0 -10 17 -30 39 -56 58 -102 110
-105 117 -1 4 -18 23 -37 44 -19 20 -53 58 -75 84 -22 26 -51 60 -65 75 -14
14 -45 51 -70 80 -25 30 -62 71 -82 92 -21 21 -38 40 -38 43 0 3 -12 18 -27
34 -16 16 -62 66 -103 112 -41 45 -89 98 -107 116 -17 18 -29 35 -25 38 3 3 0
6 -7 6 -7 0 -20 9 -29 19 -10 11 -28 22 -42 26 -14 4 -22 4 -18 0z m285 -438
c13 -21 31 -46 41 -56 33 -35 82 -96 83 -103 0 -3 20 -28 45 -53 24 -26 41
-52 37 -59 -3 -6 -3 -8 2 -4 7 7 35 -14 35 -27 0 -4 6 -12 13 -20 13 -13 58
-68 119 -145 l37 -46 -62 -1 c-34 -1 -100 -4 -147 -8 -47 -4 -110 -8 -140 -9
l-55 -1 -1 65 c-3 96 -12 250 -19 290 -3 19 -7 49 -9 67 -2 17 -6 35 -9 40 -3
5 -8 28 -12 52 -3 24 -11 55 -16 69 l-10 26 22 -19 c12 -11 32 -37 46 -58z"/>
<path d="M3048 2808 c-18 -18 -36 -32 -40 -30 -5 1 -7 -4 -5 -10 1 -7 -5 -11
-13 -10 -8 2 -12 1 -8 -3 4 -4 -3 -17 -15 -29 -12 -12 -56 -60 -97 -106 -41
-46 -86 -95 -99 -109 -13 -14 -44 -50 -70 -80 -25 -30 -51 -59 -56 -65 -15
-16 -118 -137 -146 -170 -13 -16 -31 -36 -40 -45 -17 -17 -157 -177 -200 -228
-25 -30 -29 -31 -80 -26 -68 7 -64 7 -127 -1 -58 -6 -130 -39 -139 -61 -3 -8
-8 -13 -12 -11 -4 3 -15 -11 -25 -29 -17 -32 -18 -36 -3 -59 19 -28 69 -40
164 -39 l63 1 -38 -46 c-20 -26 -41 -52 -47 -58 -5 -7 -24 -29 -41 -50 -17
-22 -59 -73 -93 -114 -33 -41 -61 -79 -61 -83 0 -5 -4 -5 -10 -2 -5 3 -10 1
-10 -5 0 -6 -24 -41 -53 -78 -70 -88 -167 -227 -167 -240 0 -6 -3 -12 -7 -14
-5 -1 -17 -18 -27 -37 l-19 -34 23 -19 c12 -10 30 -18 40 -18 29 0 133 74 189
136 30 32 51 53 46 45 -5 -10 -4 -12 4 -7 6 4 9 11 6 16 -3 4 9 20 26 34 17
14 28 26 24 26 -3 0 17 28 45 63 28 34 55 67 60 74 6 7 10 17 10 23 0 5 4 10
8 10 5 0 26 26 48 58 46 67 53 77 77 103 9 10 17 22 16 25 -1 9 74 117 95 137
10 9 16 17 12 17 -4 0 1 9 12 20 14 15 35 20 102 24 86 6 176 14 220 22 14 2
73 7 133 10 85 4 107 3 108 -8 0 -7 3 -22 5 -33 3 -11 7 -32 9 -46 2 -14 9
-38 14 -52 6 -15 8 -27 6 -27 -3 0 1 -16 9 -35 8 -19 13 -35 11 -35 -2 0 2
-12 10 -27 8 -15 12 -30 9 -35 -3 -4 0 -8 6 -8 6 0 9 -4 5 -10 -7 -11 47 -41
84 -46 14 -2 35 -5 46 -7 11 -1 25 -5 30 -9 16 -10 70 25 73 48 1 12 -11 68
-27 126 -16 58 -32 131 -35 163 l-7 58 41 34 c22 19 40 40 40 48 0 7 -20 19
-44 26 l-44 13 3 150 c1 83 5 162 8 176 5 22 10 62 22 177 3 29 9 73 20 153 2
14 7 68 10 120 4 52 9 98 11 102 2 4 0 9 -5 12 -5 4 -8 17 -7 31 2 13 0 23 -3
22 -3 -1 -16 4 -28 11 -20 11 -26 8 -55 -20z m-175 -390 c-8 -29 -16 -64 -18
-78 -2 -14 -7 -41 -10 -60 -16 -87 -29 -244 -27 -340 l2 -75 -58 2 c-31 1
-102 5 -157 8 -55 4 -121 8 -146 9 l-46 1 56 70 c31 38 59 72 64 73 4 2 7 8 7
13 0 5 8 17 18 27 9 10 33 38 52 62 19 24 43 52 53 62 9 10 15 18 12 18 -3 0
6 12 19 28 31 35 55 63 86 102 14 17 32 40 40 49 8 10 26 32 39 50 13 17 25
31 26 31 1 0 -4 -24 -12 -52z"/>
<path d="M5286 2312 c-98 -67 -109 -84 -112 -184 -1 -45 2 -90 7 -99 6 -12 3
-24 -11 -42 -11 -14 -20 -30 -20 -36 0 -6 -4 -11 -8 -11 -5 0 -15 -12 -23 -27
-8 -16 -22 -37 -33 -48 -18 -20 -18 -20 -12 15 4 19 12 64 19 100 13 70 14
126 2 178 -9 39 -41 50 -88 31 -17 -8 -35 -14 -39 -15 -5 -1 -9 -2 -10 -4 -2
-1 -11 -3 -20 -5 -48 -9 -123 -40 -140 -57 -25 -25 -30 -64 -11 -80 8 -6 31
-14 51 -17 l37 -6 1 -80 c0 -44 -3 -95 -8 -115 -5 -19 -11 -44 -13 -54 -6 -24
-45 -81 -90 -131 -38 -41 -38 -49 -3 -101 31 -45 82 -77 115 -72 46 8 56 12
77 30 10 10 24 14 30 11 6 -3 8 -3 4 1 -3 4 8 22 25 40 33 34 127 179 127 196
0 6 5 10 10 10 6 0 10 4 10 9 0 5 19 43 43 84 l43 75 23 -28 c19 -25 28 -28
65 -25 45 4 85 21 99 43 5 7 12 10 16 7 17 -10 -1 89 -21 118 -26 36 -26 72 1
128 35 72 26 149 -22 192 -29 25 -45 21 -121 -31z"/>
<path d="M4315 2278 c-27 -15 -35 -28 -35 -59 0 -64 73 -96 118 -51 29 30 28
72 -1 100 -26 24 -52 27 -82 10z m65 -34 c17 -19 2 -69 -20 -70 -28 -1 -50 17
-50 39 0 43 44 63 70 31z"/>
<path d="M3765 2260 c-96 -21 -262 -147 -326 -248 -36 -57 -31 -95 24 -181 58
-90 85 -150 92 -205 3 -25 6 -50 7 -54 5 -17 -14 -50 -27 -48 -22 3 -62 44
-75 77 -7 16 -17 29 -22 29 -5 0 -6 5 -3 10 4 6 1 9 -7 8 -7 -2 -12 2 -11 7 1
6 -6 11 -15 12 -10 1 -22 2 -27 3 -40 8 -102 -45 -140 -120 -46 -91 -9 -146
112 -166 72 -12 185 0 232 26 12 6 21 8 21 5 0 -8 112 65 143 94 83 76 105
182 61 294 -13 33 -30 64 -37 69 -6 4 -8 8 -4 8 5 0 -1 13 -12 29 -12 16 -21
34 -21 40 0 6 -4 11 -8 11 -12 0 -32 47 -32 75 0 28 7 31 29 11 9 -7 30 -18
47 -24 69 -23 119 52 113 165 -2 34 -8 44 -28 54 -14 6 -33 14 -41 18 -8 4
-28 4 -45 1z"/>
<path d="M4439 2137 c-11 -25 -62 -57 -91 -57 -8 0 -19 5 -26 12 -7 7 -12 8
-12 4 0 -5 -14 5 -30 23 -17 17 -33 31 -36 31 -3 0 -2 -39 1 -87 4 -49 8 -113
11 -143 2 -30 6 -82 9 -115 2 -33 7 -94 10 -135 3 -41 8 -97 10 -125 8 -93 18
-227 30 -380 2 -22 6 -83 10 -135 3 -52 8 -108 10 -125 2 -16 4 -40 4 -52 1
-13 7 -23 15 -23 13 0 23 57 31 180 2 19 5 71 9 115 12 166 15 212 21 295 11
149 14 203 20 290 3 47 7 114 9 150 3 36 8 110 11 165 4 54 8 102 10 105 2 3
0 12 -5 20 -7 11 -11 8 -21 -13z m-92 -107 c-1 -4 1 -8 6 -9 4 -1 7 2 8 7 1
13 21 32 34 32 8 0 11 -13 9 -37 -1 -21 -5 -103 -9 -183 -3 -80 -8 -172 -10
-205 -3 -33 -7 -121 -10 -195 -10 -211 -13 -262 -19 -268 -3 -3 -6 17 -7 44
-1 61 -5 143 -14 259 -3 50 -8 122 -10 160 -3 39 -7 102 -9 140 -20 296 -19
310 15 279 10 -9 17 -20 16 -24z"/>
</g>
</svg>
